<svg width="1522" height="587" viewBox="0 0 1522 587" fill="none" xmlns="http://www.w3.org/2000/svg">
<g clip-path="url(#clip0_23_116)">
<path d="M18.7717 577.729C18.7717 582.809 14.4594 587 9.45851 587C4.13151 587 0.000370517 582.773 0.000370517 577.729V479.689V479.511C-0.18082 476.634 1.19623 473.614 3.76913 471.732C8.08147 468.855 13.9158 469.707 16.8511 473.757L72.4766 549.205V479.653C72.4766 474.751 76.6077 470.56 81.7898 470.56C86.9718 470.56 91.2479 474.787 91.2479 479.653V577.694C91.2479 582.773 86.9356 586.965 81.7898 586.965C79.0357 586.965 76.4628 585.615 74.7233 583.59C74.361 583.271 74.0348 582.915 73.8536 582.596L18.7717 507.68V577.729Z" fill="#244D7E"/>
<path d="M216.632 559.15H174.813L166.37 581.067C164.811 584.797 161.188 587 157.419 587C156.223 587 155.172 586.822 154.157 586.502C149.156 584.62 146.765 579.256 148.468 574.354L186.518 474.964C188.076 471.269 191.845 468.889 195.65 469.067C199.6 468.889 203.224 471.269 204.782 474.964L242.796 574.354C244.535 579.256 242.107 584.655 237.106 586.502C236.237 586.822 235.041 587 233.845 587C230.076 587 226.452 584.797 225.075 581.067L216.632 559.15ZM209.565 540.608L195.614 504.34L181.662 540.608H209.565Z" fill="#244D7E"/>
<path d="M312.734 585.33C312.372 584.975 312.045 584.797 311.538 584.478C311.538 584.3 311.357 584.3 311.357 583.98C310.995 583.625 310.668 583.305 310.487 582.986C310.487 582.986 310.306 582.986 310.306 582.808C310.125 582.453 309.799 581.813 309.436 581.458L267.255 482.885C265.19 478.338 267.436 472.761 272.437 470.914C277.076 468.889 282.584 471.091 284.649 475.816L318.206 553.964L351.762 475.816C353.828 471.091 359.517 468.889 364.156 470.914C368.975 472.761 371.222 478.338 369.338 482.885L326.867 581.458C326.686 581.813 326.541 582.488 326.178 582.808C326.178 582.986 326.178 582.986 325.997 582.986C325.816 583.305 325.309 583.66 325.127 583.98C324.946 584.3 324.946 584.3 324.801 584.478C324.439 584.833 324.113 584.975 323.75 585.33L323.388 585.508C323.026 585.685 322.518 586.183 322.011 586.36C321.83 586.36 321.83 586.36 321.649 586.538C321.141 586.538 320.779 586.715 320.271 586.858H319.909C319.221 587.035 318.713 587.035 318.206 587.035C317.699 587.035 317.01 587.035 316.467 586.858H316.104C315.778 586.68 315.053 586.538 314.727 586.538C314.727 586.36 314.546 586.36 314.546 586.36H314.365C314.002 586.183 313.35 585.685 312.806 585.366H312.734V585.33Z" fill="#244D7E"/>
<path d="M475.118 587C447.396 587 425.363 565.047 425.363 538.228V478.161C425.363 472.939 429.494 468.854 434.821 468.854C440.003 468.854 444.46 472.903 444.46 478.161V538.228C444.46 554.782 458.231 568.28 475.118 568.28C492.149 568.28 505.775 554.782 505.775 538.228V478.161C505.775 472.939 510.087 468.854 515.414 468.854C520.741 468.854 524.909 472.903 524.909 478.161V538.228C524.872 565.083 502.695 587 475.118 587Z" fill="#244D7E"/>
<path d="M584.159 557.659C587.276 553.965 592.929 553.432 596.734 556.487C604.308 562.561 617.39 569.63 629.602 569.488C638.226 569.488 645.981 566.966 651.127 563.236C656.273 559.542 658.52 555.315 658.52 551.087C658.52 548.885 658.012 547.393 656.961 545.688C655.911 543.983 654.389 542.314 651.779 540.608C646.779 537.412 638.371 534.534 628.189 532.687H627.826C619.745 531.16 612.171 529.135 605.612 526.116C599.053 523.061 593.364 518.869 589.595 512.937C587.022 508.887 585.645 504.163 585.645 499.119C585.645 488.995 591.516 480.221 599.416 474.467C607.497 468.712 618.006 465.515 629.203 465.515C645.728 465.515 657.976 473.437 666.746 479.013C670.696 481.713 671.928 487.112 669.174 490.984C666.601 495.034 661.093 496.206 656.961 493.506C648.156 487.752 639.748 482.708 629.239 482.708C621.485 482.708 614.599 485.088 609.961 488.462C605.322 491.837 603.402 495.531 603.402 499.083C603.402 501.108 603.728 502.458 604.598 503.808C605.467 505.158 606.989 506.685 609.236 508.177C613.693 511.196 621.448 513.931 630.761 515.601H631.124C639.893 517.306 647.975 519.473 654.86 522.705C661.926 526.08 668.123 530.485 672.073 536.701C674.646 540.751 676.204 545.83 676.204 551.052C676.204 561.851 670.007 571.122 661.383 577.196C652.939 583.27 641.778 586.823 629.529 586.823C610.939 586.645 595.284 577.551 585.464 569.95C581.731 566.93 581.224 561.353 584.159 557.659Z" fill="#244D7E"/>
<path d="M799.594 577.728V478.16C799.594 472.939 803.725 468.889 809.052 468.889C814.379 468.889 818.691 472.939 818.691 478.16V518.655H863.264V478.16C863.264 472.939 867.395 468.889 872.722 468.889C878.049 468.889 882.362 472.939 882.362 478.16V577.728C882.362 582.95 878.049 587 872.722 587C867.395 587 863.264 582.95 863.264 577.728V537.233H818.691V577.728C818.691 582.95 814.379 587 809.052 587C803.725 587 799.594 582.95 799.594 577.728Z" fill="#244D7E"/>
<path d="M944.256 577.728V478.16C944.256 472.939 948.387 468.889 953.714 468.889H953.895H954.257H1010.03C1015.03 468.889 1019.49 472.939 1019.49 478.16C1019.49 483.382 1014.99 487.609 1010.03 487.609H963.353V518.513H1003.47C1008.61 518.513 1012.93 522.882 1012.93 527.784C1012.93 533.006 1008.61 537.233 1003.47 537.233H963.353V568.279H1010.03C1015.03 568.279 1019.49 572.507 1019.49 577.728C1019.49 582.808 1014.99 587 1010.03 587H954.257C953.895 587 953.895 586.822 953.895 586.822L953.714 587C948.387 587 944.256 582.808 944.256 577.728Z" fill="#244D7E"/>
<path d="M1130.37 559.15H1088.52L1080.08 581.067C1078.52 584.797 1074.93 587 1071.13 587C1069.93 587 1068.88 586.822 1067.86 586.502C1062.86 584.62 1060.47 579.256 1062.17 574.354L1100.22 474.964C1101.78 471.269 1105.55 468.889 1109.36 469.067C1113.31 468.889 1116.93 471.269 1118.49 474.964L1156.54 574.354C1158.24 579.256 1155.85 584.655 1150.85 586.502C1149.98 586.822 1148.78 587 1147.59 587C1143.82 587 1140.2 584.797 1138.82 581.067L1130.37 559.15ZM1123.34 540.608L1109.39 504.34L1095.44 540.608H1123.34Z" fill="#244D7E"/>
<path d="M1202.74 577.728V478.16C1202.74 473.081 1206.87 468.889 1212.2 468.889C1217.53 468.889 1221.84 473.116 1221.84 478.16V568.279H1268.51C1273.51 568.279 1277.97 572.507 1277.97 577.728C1277.97 582.808 1273.51 587 1268.51 587H1212.74H1212.38H1212.2C1206.87 587 1202.74 582.808 1202.74 577.728Z" fill="#244D7E"/>
<path d="M1378.71 487.61H1351.35V577.729C1351.35 582.95 1347.22 587 1341.9 587C1336.71 587 1332.4 582.95 1332.4 577.729V487.61H1305.22C1299.9 487.61 1295.73 483.24 1295.73 478.161C1295.73 472.939 1299.86 468.854 1305.22 468.854H1378.75C1383.93 468.854 1388.21 472.903 1388.21 478.161C1388.17 483.205 1383.86 487.61 1378.71 487.61Z" fill="#244D7E"/>
<path d="M1439.16 577.728V478.16C1439.16 472.939 1443.29 468.889 1448.62 468.889C1453.95 468.889 1458.26 472.939 1458.26 478.16V518.655H1502.87V478.16C1502.87 472.939 1507 468.889 1512.32 468.889C1517.65 468.889 1521.96 472.939 1521.96 478.16V577.728C1521.96 582.95 1517.65 587 1512.32 587C1507 587 1502.87 582.95 1502.87 577.728V537.233H1458.26V577.728C1458.26 582.95 1453.95 587 1448.62 587C1443.33 587 1439.16 582.95 1439.16 577.728Z" fill="#244D7E"/>
<path d="M894.936 156.226C895.081 146.528 898.197 137.826 904.285 130.188C908.996 124.327 914.867 119.923 921.788 116.868C926.753 114.665 931.971 113.387 937.407 112.925C944.8 112.285 952.011 113.173 958.933 115.766C970.891 120.278 979.806 128.093 984.988 139.637C989.735 150.187 989.735 160.986 985.459 171.749C984.118 175.124 982.27 178.25 980.132 181.162C979.987 181.376 979.769 181.589 979.697 181.837C977.849 186.988 974.769 191.499 972.232 196.295C968.971 202.44 965.6 208.514 962.266 214.589C958.643 221.196 954.983 227.838 951.395 234.481C949.366 238.282 946.285 240.484 941.864 240.52C937.335 240.555 934.146 238.353 932.044 234.516C925.014 221.622 917.983 208.727 910.953 195.833C908.996 192.281 907.003 188.764 905.083 185.212C904.648 184.466 904.394 183.613 904.032 182.832C903.742 182.193 903.524 181.482 903.09 180.914C897.944 173.916 895.226 166.172 894.972 157.54C895.008 157.114 894.972 156.652 894.936 156.226ZM939.4 139.637C934.907 139.744 930.123 141.662 926.354 145.711C918.962 153.633 920.738 165.959 930.015 171.749C937.914 176.687 948.967 175.479 955.236 168.232C959.005 163.899 960.31 158.855 959.005 153.349C957.084 145.214 949.003 139.353 939.4 139.637Z" fill="#6EC4FF"/>
<path d="M1168.79 258.209C1153.02 258.919 1137.04 258.884 1121.28 258.067C1111.13 257.534 1100.7 256.504 1093.12 252.596C1091.02 251.495 1088.7 248.973 1086.27 246.309L1085.3 245.243C1084.79 244.675 1084.28 244.106 1083.81 243.503C1082.36 241.798 1080.58 239.666 1078.27 237.748C1072.36 232.811 1063.55 231.212 1055.76 233.699C1048.88 235.901 1044.71 240.838 1042.5 243.503C1041.85 244.284 1041.19 245.03 1040.54 245.776L1037.14 249.541C1034.96 251.957 1032.79 254.372 1030.58 256.788C1028.84 258.67 1026.59 260.908 1024.42 261.654C1023.58 261.938 1022.57 262.116 1021.48 262.116C1017.86 262.187 1013 261.228 1006.91 253.697C1004.38 250.358 987.525 226.417 973.356 205.778C972.16 207.981 970.964 210.183 969.769 212.35L963.463 223.894C962.231 226.097 961.035 228.335 959.839 230.537C971.363 247.126 985.423 267.125 986.945 268.972C996.585 280.907 1008.14 286.981 1021.3 286.981C1021.48 286.981 1021.7 286.981 1021.92 286.981C1025.76 286.91 1029.45 286.306 1032.9 285.134C1040.47 282.541 1045.76 277.533 1049.49 273.448C1051.78 270.961 1054.02 268.474 1056.27 265.988L1059.6 262.258C1060.47 261.299 1061.34 260.34 1062.14 259.345C1062.36 259.097 1062.79 258.564 1063.23 258.102C1063.59 258.493 1063.95 258.955 1064.35 259.416C1065.07 260.269 1065.76 261.121 1066.52 261.903L1067.43 262.898C1070.91 266.698 1075.22 271.458 1081.38 274.655C1093.3 280.801 1107 282.293 1120.01 282.967C1136.65 283.856 1153.46 283.891 1170.06 283.145C1177.05 282.825 1182.45 277 1182.12 270.144C1181.73 263.182 1175.78 257.818 1168.79 258.209Z" fill="#244D7E"/>
<path d="M909.504 204.429C892.182 229.436 874.208 254.763 869.678 259.665C868.12 261.335 867.468 261.832 867.142 261.939C866.199 262.294 863.373 262.329 861.706 262.329C858.698 262.401 855.437 262.223 851.958 262.045C846.74 261.832 841.304 261.584 836.013 261.903C826.338 262.472 815.212 263.821 806.334 269.683C795.898 276.574 792.201 287.266 789.955 293.624C785.642 306.057 781.584 318.561 777.779 331.171L733.894 10.7631C733.061 4.6889 727.806 0.106566 721.573 0C721.501 0 721.428 0 721.356 0C715.195 0 709.905 4.3692 708.854 10.3369L661.563 280.481C659.932 278.599 657.976 276.787 655.62 275.117C646.379 268.688 635.327 266.699 625.579 264.958C624.057 264.674 622.535 264.425 621.013 264.141C608.764 261.797 606.952 258.138 601.589 247.268C599.741 243.574 597.675 239.347 594.885 234.8C589.196 225.458 581.658 220.698 572.526 220.662C572.49 220.662 572.454 220.662 572.417 220.662C562.851 220.662 554.262 225.351 548.863 233.557C547.341 235.866 546.109 238.032 544.913 240.164C543.282 243.077 541.833 245.634 540.057 247.765C537.085 251.318 533.208 254.905 528.279 258.671C509.327 273.057 493.563 272.418 458.992 270.997C447.07 270.5 433.553 269.931 417.427 269.931C410.433 269.931 404.744 275.508 404.744 282.364C404.744 289.22 410.433 294.797 417.427 294.797C433.046 294.797 446.273 295.329 457.941 295.827C493.853 297.319 517.553 298.278 543.862 278.314C550.348 273.377 555.567 268.546 559.734 263.502C562.996 259.63 565.206 255.651 567.163 252.17C568.141 250.465 569.084 248.725 570.207 247.055C570.823 246.131 571.367 245.776 571.801 245.634C572.091 245.989 572.526 246.558 573.142 247.588C575.353 251.211 577.092 254.763 578.795 258.138C585.065 270.784 591.515 283.82 616.193 288.545C617.787 288.864 619.454 289.149 621.085 289.433C628.913 290.818 636.305 292.132 640.944 295.365C643.045 296.857 644.278 299.556 645.836 303.499L646.524 305.24C649.351 312.273 652.25 319.555 656.055 326.766C658.555 331.526 663.846 334.19 669.246 333.409C674.645 332.592 678.921 328.507 679.827 323.214L719.87 94.6304L761.326 397.1C762.16 403.067 767.197 407.614 773.358 407.863C773.539 407.863 773.72 407.863 773.901 407.863C779.808 407.863 784.954 403.849 786.258 398.165C793.687 365.805 803.036 333.302 814.053 301.581C815.829 296.431 817.459 292.31 820.576 290.25C824.417 287.728 831.665 287.017 837.571 286.662C841.558 286.449 846.087 286.626 850.907 286.84C854.567 286.982 858.336 287.195 861.996 287.124C865.837 287.088 871.092 287.053 876.31 285.099C881.854 283.039 885.587 279.487 888.522 276.325C893.632 270.819 908.779 249.577 923.057 229.116C918.491 220.911 913.997 212.67 909.504 204.429Z" fill="#244D7E"/>
</g>
<defs>
<clipPath id="clip0_23_116">
<rect width="1522" height="587" fill="white"/>
</clipPath>
</defs>
</svg>
